<svg width="151" height="97" viewBox="0 0 151 97" fill="none" xmlns="http://www.w3.org/2000/svg">
<path d="M148.943 2.28271C126.783 4.74499 101.299 13.1142 91.9596 35.3856C87.9855 44.8623 86.0712 57.0344 91.7997 66.0364C96.0325 72.6879 107.687 70.7717 114.188 69.0215C123.381 66.5464 122.46 57.5483 119.625 50.2579C110.229 26.0951 79.1176 21.01 59.6031 34.6926C46.8222 43.6539 36.8308 55.3824 30.7113 69.6611C29.0805 73.4664 20.7446 92.6633 26.1271 95.3545" stroke="#808080" stroke-width="3" stroke-linecap="round"/>
<path d="M26.8455 94.8381C23.6143 93.1275 20.7191 90.2561 17.9364 87.9116C15.469 85.8327 12.8485 83.9604 10.3735 81.8906C8.41755 80.2549 6.29639 78.8528 4.13229 77.5095C3.51562 77.1268 2.87846 76.8186 2.39453 76.3347" stroke="#808080" stroke-width="3" stroke-linecap="round"/>
<path d="M26.1846 94.6179C28.0493 90.2103 31.8365 85.8701 34.9713 82.3435C38.4826 78.3932 42.3816 74.8142 46.1076 71.0725C46.6319 70.546 47.9922 69.5556 47.9922 68.625" stroke="#808080" stroke-width="3" stroke-linecap="round"/>
</svg>
